# xmcd CD database file generated by OrangeCD 5.2
#
# Track frame offsets:
#	150
#	15473
#	33053
#	47205
#	63042
#	76059
#	89247
#	105518
#	115960
#	133065
#	145373
#	157924
#	170316
#	182024
#
# Disc length: 2560 seconds
#
# Revision: 2
# Processed by: cddbd v1.5.1PL0 Copyright (c) Steve Scherf et al.
# Submitted via: OrangeCD 5.2
#
DISCID=ac09fe0e
DTITLE=The Derailers - Live Tracks
DYEAR=1995
DGENRE=Country
TTITLE0=Big City Blues
TTITLE1=Lies, Lies, Lies
TTITLE2=Lover's Lie
TTITLE3=Lost And Found
TTITLE4=Jackpot
TTITLE5=Wishful Thinkin'
TTITLE6=Dim Lights
TTITLE7=I'll Catch You When You Fall
TTITLE8=Painful Days And Sleepless Nights
TTITLE9=My Heart's Ready
TTITLE10=I'm Your Man
TTITLE11=I Go Anywhere
TTITLE12=You Done Me Wrong
TTITLE13=Just One More Time
EXTD=
EXTT0=T. Villanueva - Spud and Spike Music (BMI]\n
EXTT1=B. Hofeldt - Spud and Spike Music (BMI]\n\n
EXTT2=T. Villanueva - Spud and Spike Music (BMI]\n\n
EXTT3=T. Villanueva - Spud and Spike Music (BMI]\n\n
EXTT4=T. Villanueva - Spud and Spike Music (BMI]\n\n
EXTT5=W. Stewart\n
EXTT6=M. Adler\n
EXTT7=H. Howard\n
EXTT8=T. Villanueva - Spud and Spike Music (BMI]\n\n
EXTT9=T. Villanueva - Spud and Spike Music (BMI]\n\n
EXTT10=B. Hofeldt - Spud and Spike Music (BMI]\n\n
EXTT11=C. Walker\n
EXTT12=R. Price, S. Jones\n
EXTT13=T. Villanueva, B. Hofeldt - Spud and Spike \nMusic (BMI]\n\n
PLAYORDER=
